HIERARCHY
ROOT joint_Root
{
	OFFSET 0.0 0.0 0.0
	CHANNELS 6 Xposition Yposition Zposition Zrotation Xrotation Yrotation 
	JOINT Hips
	{
		OFFSET -17.1583 93.1646 452.98
		CHANNELS 6 Xposition Yposition Zposition Zrotation Xrotation Yrotation 
		JOINT Spine
		{
			OFFSET 15.7357 0.0 0.0
			CHANNELS 6 Xposition Yposition Zposition Zrotation Xrotation Yrotation 
			JOINT Chest
			{
				OFFSET 8.98455 -0.406207 0.0
				CHANNELS 6 Xposition Yposition Zposition Zrotation Xrotation Yrotation 
				JOINT Neck
				{
					OFFSET 16.3773 0.0 0.0
					CHANNELS 6 Xposition Yposition Zposition Zrotation Xrotation Yrotation 
					JOINT Head
					{
						OFFSET 6.45672 0.0 0.0
						CHANNELS 6 Xposition Yposition Zposition Zrotation Xrotation Yrotation 
						End Site
						{
							OFFSET 0.0 0.0 0.0
						}
					}
				}
				JOINT Shoulder_L
				{
					OFFSET 12.9942 -0.242716 4.98039
					CHANNELS 6 Xposition Yposition Zposition Zrotation Xrotation Yrotation 
					JOINT UpperArm_L
					{
						OFFSET 5.34809 0.0 0.0
						CHANNELS 6 Xposition Yposition Zposition Zrotation Xrotation Yrotation 
						JOINT LowerArm_L
						{
							OFFSET 24.3286 1.87007e-05 0.0
							CHANNELS 6 Xposition Yposition Zposition Zrotation Xrotation Yrotation 
							JOINT Hand_L
							{
								OFFSET 22.2916 0.0 0.0
								CHANNELS 6 Xposition Yposition Zposition Zrotation Xrotation Yrotation 
								End Site
								{
									OFFSET 0.0 0.0 0.0
								}
							}
						}
					}
				}
				JOINT Shoulder_R
				{
					OFFSET 12.9945 -0.242716 -4.98039
					CHANNELS 6 Xposition Yposition Zposition Zrotation Xrotation Yrotation 
					JOINT UpperArm_R
					{
						OFFSET -5.34813 0.0 0.0
						CHANNELS 6 Xposition Yposition Zposition Zrotation Xrotation Yrotation 
						JOINT LowerArm_R
						{
							OFFSET -24.3289 0.000322201 0.0
							CHANNELS 6 Xposition Yposition Zposition Zrotation Xrotation Yrotation 
							JOINT Hand_R
							{
								OFFSET -22.2915 -0.000108084 0.0
								CHANNELS 6 Xposition Yposition Zposition Zrotation Xrotation Yrotation 
								End Site
								{
									OFFSET 0.0 0.0 0.0
								}
							}
						}
					}
				}
			}
		}
		JOINT UpperLeg_L
		{
			OFFSET -2.19248 -6.46944 0.0
			CHANNELS 6 Xposition Yposition Zposition Zrotation Xrotation Yrotation 
			JOINT LowerLeg_L
			{
				OFFSET 39.0811 0.0 -1.23785e-05
				CHANNELS 6 Xposition Yposition Zposition Zrotation Xrotation Yrotation 
				JOINT Foot_L
				{
					OFFSET 40.9854 0.0 -1.26872e-05
					CHANNELS 6 Xposition Yposition Zposition Zrotation Xrotation Yrotation 
					JOINT Toes_L
					{
						OFFSET 11.7543 0.0 0.0
						CHANNELS 6 Xposition Yposition Zposition Zrotation Xrotation Yrotation 
						End Site
						{
							OFFSET 0.0 0.0 0.0
						}
					}
				}
			}
		}
		JOINT UpperLeg_R
		{
			OFFSET -2.19251 6.46944 0.0
			CHANNELS 6 Xposition Yposition Zposition Zrotation Xrotation Yrotation 
			JOINT LowerLeg_R
			{
				OFFSET -39.0811 -0.00228153 -0.0401928
				CHANNELS 6 Xposition Yposition Zposition Zrotation Xrotation Yrotation 
				JOINT Foot_R
				{
					OFFSET -40.9854 0.0 0.0
					CHANNELS 6 Xposition Yposition Zposition Zrotation Xrotation Yrotation 
					JOINT Toes_R
					{
						OFFSET -11.7543 0.0 0.0
						CHANNELS 6 Xposition Yposition Zposition Zrotation Xrotation Yrotation 
						End Site
						{
							OFFSET 0.0 0.0 0.0
						}
					}
				}
			}
		}
	}
}
MOTION
Frames:	4
Frame Time:	0.0333333
0.000000 0.000000 0.000000 0.000000 0.000000 -0.000000 -3.019960 93.610600 2.014090 87.596700 1.430080 -8.375070 15.735700 0.000005 -0.000001 -85.999700 88.618700 87.747000 8.984550 -0.406207 -0.000000 -10.512500 -0.470017 3.463650 16.377300 -0.000001 -0.000001 -2.474580 1.955000 -5.650930 6.456720 -0.000001 -0.000000 7.043010 0.140790 -7.480330 12.994200 -0.242716 4.980390 -88.331400 -3.024950 -61.099800 5.348090 -0.000007 -0.000001 -87.963700 -69.613900 -93.143600 24.328600 0.000019 0.000005 0.000512 -49.750400 -0.000003 22.291600 -0.000001 0.000005 66.186300 3.314250 33.283700 12.994500 -0.242716 -4.980390 95.544400 -10.198100 -61.265600 -5.348130 -0.000001 -0.000004 -101.552000 -70.774300 -99.908000 -24.328900 0.000322 -0.000009 -0.001326 -60.153600 -0.000514 -22.291500 -0.000108 -0.000004 65.297400 4.843050 10.495900 -2.192480 -6.469440 -0.000000 -170.909000 -4.520030 -1.607350 39.081100 -0.000007 -0.000012 -0.000001 0.020410 0.000005 40.985400 -0.000006 -0.000013 -11.539100 12.931400 -60.536300 11.754300 -0.000000 0.000003 -0.000793 0.180052 -9.273220 -2.192510 6.469440 -0.000001 -179.490000 8.166410 178.416000 -39.081100 -0.002282 -0.040193 0.004072 -0.047252 0.870484 -40.985400 0.000008 0.000006 -8.341150 5.123870 -62.473700 -11.754300 -0.000006 -0.000006 -0.010595 0.275701 -5.371160
0.000000 0.000000 0.000000 0.000000 0.000000 -0.000000 -3.029030 93.585300 2.207180 87.656700 1.584010 -8.246000 15.735700 0.000005 -0.000001 -83.871400 88.530600 85.612700 8.984550 -0.406207 -0.000000 -10.676800 -0.591937 3.440040 16.377300 -0.000001 -0.000001 -2.311650 2.506030 -6.028400 6.456720 -0.000001 -0.000000 7.677950 0.830399 -7.836140 12.994200 -0.242716 4.980390 -88.317000 -3.058990 -61.162700 5.348090 -0.000007 -0.000001 -80.605500 -69.614000 -90.045700 24.328600 0.000019 0.000005 0.000891 -42.223800 -0.000001 22.291600 -0.000001 0.000005 65.188200 3.440510 31.704100 12.994500 -0.242716 -4.980390 95.228900 -9.552200 -61.124100 -5.348130 -0.000001 -0.000004 -96.468800 -70.789200 -98.978400 -24.328900 0.000322 -0.000009 -0.001329 -58.205200 -0.000475 -22.291500 -0.000108 -0.000004 63.509100 4.886290 9.647000 -2.192480 -6.469440 -0.000000 -170.929000 -4.526870 -1.379520 39.081100 -0.000007 -0.000012 -0.000001 0.022719 0.000002 40.985400 -0.000006 -0.000013 -11.435000 13.133800 -60.574100 11.754300 -0.000000 0.000003 -0.000649 0.177917 -9.359960 -2.192510 6.469440 -0.000001 -179.566000 8.096620 178.667000 -39.081100 -0.002282 -0.040193 0.004132 -0.047438 0.939533 -40.985400 0.000008 0.000006 -8.375900 4.938240 -62.659000 -11.754300 -0.000006 -0.000006 -0.010573 0.275536 -5.377900
0.000000 0.000000 0.000000 0.000000 0.000000 -0.000000 -3.022370 93.573000 2.323260 87.702000 1.683160 -7.954120 15.735700 0.000005 -0.000001 -81.385400 88.543200 83.121900 8.984550 -0.406207 -0.000000 -10.634000 -0.712623 3.419460 16.377300 -0.000001 -0.000001 -2.084770 2.908850 -6.153850 6.456720 -0.000001 -0.000000 7.679550 1.454490 -8.131180 12.994200 -0.242716 4.980390 -88.183400 -3.277610 -60.981800 5.348090 -0.000007 -0.000001 -75.663100 -69.125700 -90.407600 24.328600 0.000019 0.000005 0.000388 -36.130500 -0.000001 22.291600 -0.000001 0.000005 63.382200 3.549080 30.311000 12.994500 -0.242716 -4.980390 94.845800 -8.769660 -60.923400 -5.348130 -0.000001 -0.000004 -89.340500 -70.393600 -98.064300 -24.328900 0.000322 -0.000009 -0.001321 -56.847000 -0.000451 -22.291500 -0.000108 -0.000004 59.091100 4.921040 8.942540 -2.192480 -6.469440 -0.000000 -170.942000 -4.554330 -1.032230 39.081100 -0.000007 -0.000012 -0.000001 0.015797 0.000000 40.985400 -0.000006 -0.000013 -11.431800 13.323800 -60.541800 11.754300 -0.000000 0.000003 -0.000678 0.178346 -9.342550 -2.192510 6.469440 -0.000001 -179.660000 7.900130 178.908000 -39.081100 -0.002282 -0.040193 0.004408 -0.049062 1.230810 -40.985400 0.000008 0.000006 -8.364470 4.680330 -62.863000 -11.754300 -0.000006 -0.000006 -0.010626 0.275928 -5.361870
0.000000 0.000000 0.000000 0.000000 0.000000 -0.000000 -3.002800 93.576700 2.373570 87.725500 1.729790 -7.648020 15.735700 0.000005 -0.000001 -80.156200 88.561000 81.888600 8.984550 -0.406207 -0.000000 -10.588200 -0.766631 3.406360 16.377300 -0.000001 -0.000001 -1.747870 3.074550 -6.167760 6.456720 -0.000001 -0.000000 7.484760 1.796520 -8.237780 12.994200 -0.242716 4.980390 -87.993900 -3.589530 -60.774000 5.348090 -0.000007 -0.000001 -74.173700 -68.223000 -94.872800 24.328600 0.000019 0.000005 0.000416 -31.599900 -0.000000 22.291600 -0.000001 0.000005 60.741900 3.648420 29.021500 12.994500 -0.242716 -4.980390 94.563800 -8.206160 -60.784800 -5.348130 -0.000001 -0.000004 -84.467400 -69.734400 -99.971600 -24.328900 0.000322 -0.000009 -0.001078 -54.201300 -0.000409 -22.291500 -0.000108 -0.000004 55.362000 4.972020 7.905510 -2.192480 -6.469440 -0.000000 -170.955000 -4.631810 -0.703549 39.081100 -0.000007 -0.000012 -0.000001 0.004713 0.000006 40.985400 -0.000006 -0.000013 -11.272500 13.497700 -60.500400 11.754300 -0.000000 0.000003 -0.000680 0.178385 -9.340970 -2.192510 6.469440 -0.000001 -179.742000 7.844950 179.065000 -39.081100 -0.002282 -0.040193 0.004831 -0.053072 1.595330 -40.985400 0.000008 0.000006 -8.456100 4.599530 -62.989600 -11.754300 -0.000006 -0.000006 -0.010447 0.274616 -5.415530
